<svg xmlns="http://www.w3.org/2000/svg" viewBox="0 0 64 64" role="img" aria-label="Thriving Healthy" fill="none">
  <rect width="64" height="64" rx="14" fill="#159957"/>
  <path d="M32 46c6.5-5 12-13 12-20 0-7.18-5.37-12-12-12s-12 4.82-12 12c0 7 5.5 15 12 20Z" fill="url(#g1)"/>
  <path d="M32 18c-4.5 0-8 3.2-8 8 0 5.6 4.4 11.9 8 15 3.6-3.1 8-9.4 8-15 0-4.8-3.5-8-8-8Z" fill="#fff" opacity="0.9"/>
  <path d="M27 24c1.2-3 3.9-4.5 5.5-4.5 1.6 0 4.3 1.5 5.5 4.5" stroke="#159957" stroke-width="2" stroke-linecap="round"/>
  <text x="32" y="52" text-anchor="middle" font-family="'Open Sans',Arial,sans-serif" font-size="14" font-weight="700" fill="#fff" letter-spacing="1">TH</text>
  <defs>
    <linearGradient id="g1" x1="20" y1="14" x2="48" y2="50" gradientUnits="userSpaceOnUse">
      <stop offset="0" stop-color="#56dba2"/>
      <stop offset="1" stop-color="#0e5f38"/>
    </linearGradient>
  </defs>
</svg>
